<svg width="150" height="150" viewBox="0 0 150 150" fill="none" xmlns="http://www.w3.org/2000/svg">
<path d="M119.997 83.9242C119.727 83.4596 119.801 82.8973 120.145 82.5061L120.194 82.4572C120.588 82.0171 120.859 81.6503 120.735 81.1369C120.662 80.7701 120.416 80.5501 120.17 80.3056C119.702 79.8655 119.653 79.132 120.071 78.643C120.219 78.4474 120.317 78.3007 120.342 78.0562C120.391 77.5427 119.973 77.1026 119.358 76.4914C119.235 76.3691 119.038 76.1735 118.89 76.0024C118.669 75.7579 118.546 75.4401 118.57 75.0978C118.595 74.7799 118.743 74.4621 119.013 74.242C119.21 74.0953 119.284 73.9242 119.284 73.7041C119.284 73.4107 119.136 73.2396 118.792 72.9706C118.497 72.7261 118.152 72.4572 117.931 71.9193C117.734 71.4792 117.783 71.2102 117.832 70.8679C117.882 70.599 117.931 70.3056 117.808 69.8655C117.611 69.0831 117.094 68.5452 116.652 68.0562C116.209 67.5672 115.766 67.1271 115.766 66.4914C115.766 66.2713 115.79 66.1246 115.815 66.0024V65.9779C115.84 65.8312 115.864 65.709 115.84 65.3667C115.79 64.9266 115.594 64.7066 115.225 64.3887C114.979 64.1687 114.683 63.8997 114.413 63.4352C113.822 62.3594 114.142 60.4034 114.659 59.4743C114.831 59.132 114.954 58.9608 115.052 58.8386C115.2 58.643 115.225 58.5941 115.2 58.2518C115.175 57.9339 115.003 57.8117 114.659 57.5672C114.388 57.396 114.044 57.176 113.822 56.7359C113.527 56.1246 113.699 55.6601 113.871 55.1711C114.068 54.6088 114.314 53.9731 113.97 52.9462C113.896 52.7261 113.822 52.4816 113.748 52.2127C113.576 51.577 113.404 50.9168 113.109 50.5745C112.986 50.4034 112.814 50.2811 112.666 50.1833C112.617 50.1344 112.518 50.0855 112.469 50.0366C112.223 49.841 112.051 49.5232 112.026 49.2053C112.002 48.863 112.026 48.643 112.051 48.4718V48.4474C112.1 48.2029 112.125 47.9584 112.002 47.4449C111.756 46.5403 111.018 45.6601 110.722 45.6601C110.698 45.6601 110.698 45.6601 110.673 45.6601H110.649C110.649 45.709 110.624 45.8313 110.698 46.0757C110.796 46.4425 110.944 46.9559 110.821 47.5427C110.747 47.885 110.624 48.1784 110.378 48.4718C110.083 48.863 109.615 49.0342 109.148 48.9364C108.68 48.8386 108.311 48.4718 108.213 48.0073C108.213 47.9828 108.188 47.9339 108.188 47.9095C108.139 47.7383 108.016 47.6405 107.844 47.5427C107.352 47.2738 107.13 46.7359 107.253 46.198C107.376 45.709 107.721 45.1222 108.262 44.3398L108.287 44.3154C108.484 44.0464 108.853 43.4841 108.828 43.2885C108.828 43.2885 108.828 43.264 108.779 43.2396C108.754 43.2151 108.754 43.2151 108.73 43.2151C108.385 43.044 108.139 42.7506 108.065 42.3838C107.967 42.0171 108.065 41.6503 108.287 41.3569C108.631 40.8924 109.074 40.3789 109.541 39.8166C109.689 39.5232 111.362 35.9291 110.599 28.9608C109.837 22.0415 109.295 19.3276 109.222 18.9853C109.172 18.8386 107.77 15.1711 105.408 15.1711C104.793 15.1711 104.178 15.4156 103.563 15.9046C100.881 18.0317 95.715 22.6039 93.5992 24.4621C92.9103 25.0733 92.3444 25.7335 91.877 26.418C91.2127 27.4205 89.7612 29.2053 87.3748 29.9633C86.9319 30.11 86.5629 30.3056 86.2431 30.5501C85.8002 30.8924 85.1606 30.8679 84.7177 30.5256C84.1519 30.0611 83.1432 29.8166 81.8147 29.8166C81.6424 29.8166 81.4948 29.8166 81.3226 29.8166C81.298 29.8166 81.298 29.8166 81.2734 29.8166C81.1996 29.8166 80.929 29.8166 80.5107 29.8166C78.5918 29.8166 73.6221 29.6454 68.8247 28.1784C67.9144 27.9095 66.9795 27.7383 66.0692 27.6894C65.7248 27.665 65.3803 27.4938 65.1589 27.2249C64.9375 26.9559 64.8391 26.5892 64.9129 26.2469C64.9375 26.1247 64.8637 26.0268 64.7899 25.9779C63.5352 24.8533 59.4758 20.2322 58.3441 16.1736V16.1491C58.2211 15.8313 57.1632 12.9462 54.9982 12.0904C54.7029 11.9682 54.4323 12.0415 54.1863 12.286C53.1284 13.3618 52.7347 17.6894 52.7594 20.4278C52.784 21.6748 52.6363 22.9462 52.3411 24.2176L50.8158 30.7212C50.8158 30.7457 50.8158 30.7701 50.7912 30.7946C50.7666 30.8679 50.6682 31.2102 50.8158 31.4058C50.8404 31.4303 50.865 31.4547 50.9142 31.4792C51.2832 31.6992 51.5046 32.066 51.5046 32.4816C51.5292 32.8973 51.3078 33.2885 50.988 33.533C49.2658 34.731 47.3715 36.1002 46.8302 36.4914C46.5596 36.687 46.2643 36.8826 45.8707 37.0782C45.4525 37.3227 44.7636 38.154 44.5422 38.4474C44.0009 39.1075 43.3367 39.6454 42.5494 40.0122C39.4741 41.5281 37.4813 43.6552 36.6448 46.3692L35.2425 50.9413C35.0949 51.4058 34.9473 51.8215 34.7997 52.1882C34.4306 53.0929 33.545 55.5379 33.2005 58.4229C33.1021 59.1809 32.8807 59.9633 32.5363 60.6968C32.0934 61.6503 31.3308 63.1173 30.199 64.8044C30.0268 65.0733 29.9038 65.3423 29.83 65.5868C29.6824 66.1491 29.8054 66.4669 29.953 66.6381C30.2236 67.0048 30.2483 67.5183 30.0514 67.9095L29.0919 69.7432C29.0673 69.7921 29.0427 69.8166 29.0181 69.8655C28.9197 70.0122 28.1571 71.3814 29.9284 77.7872C31.0847 81.9682 32.118 85.2934 32.7823 87.3471C33.5696 89.7432 34.7259 91.8948 36.2758 93.7286C36.7679 94.3398 37.2845 94.8777 37.8012 95.3178C38.121 95.6112 38.2686 96.0268 38.1948 96.4669C38.121 96.8826 37.8258 97.2249 37.4321 97.396C37.3091 97.4449 37.1615 97.4938 36.9893 97.5427C36.4726 97.7139 36.1774 98.374 36.1528 99.4009C36.1774 99.4254 36.202 99.4743 36.202 99.4987C39.5233 105.22 43.2875 110.721 47.4453 115.856C54.4815 124.56 62.7479 132.408 72.023 139.205C72.884 139.841 73.8927 140.183 74.9506 140.183C76.0085 140.183 77.0418 139.841 77.8783 139.205C87.1534 132.408 95.4197 124.56 102.456 115.856C109.295 107.42 115.028 98.0806 119.53 88.1295C119.973 87.176 120.391 86.198 120.809 85.22C120.809 85.1956 120.834 85.1955 120.834 85.1711C120.514 84.7066 120.194 84.242 119.997 83.9242Z" fill="#F7F7F7"/>
<path d="M124.155 85.489C123.983 85.2689 123.835 85.0489 123.712 84.8533C123.54 85.2934 123.343 85.7335 123.171 86.1736C123.147 86.2225 123.122 86.2714 123.097 86.3203C122.925 86.7115 122.777 87.1027 122.605 87.4939C122.556 87.6161 122.482 87.7384 122.433 87.8606C122.236 88.2763 122.064 88.7164 121.867 89.132C117.291 99.2787 111.436 108.79 104.473 117.396C97.3141 126.247 88.8755 134.266 79.4282 141.186C78.1489 142.139 76.6236 142.628 75.0244 142.628C73.4253 142.628 71.8999 142.139 70.6206 141.186C61.1733 134.266 52.7593 126.271 45.5755 117.396C45.3048 117.078 45.0342 116.736 44.7882 116.418C44.5176 116.1 44.2716 115.758 44.0009 115.416C43.7303 115.073 43.4597 114.731 43.189 114.364C42.943 114.046 42.697 113.729 42.451 113.386C41.9343 112.702 41.4177 111.993 40.9256 111.284C40.7042 110.966 40.4828 110.648 40.2614 110.354C40.2368 110.33 40.2122 110.306 40.1876 110.257C39.9661 109.939 39.7447 109.645 39.5479 109.328C39.5233 109.303 39.5233 109.279 39.4987 109.254C39.2527 108.912 39.0313 108.57 38.8098 108.227C38.8098 108.203 38.7852 108.203 38.7852 108.178C38.5638 107.836 38.3424 107.494 38.121 107.152C37.8996 106.834 37.7027 106.516 37.4813 106.198C37.3583 105.978 37.2107 105.782 37.0877 105.562C36.9155 105.293 36.7432 105.049 36.5956 104.78C36.5956 104.78 36.5956 104.755 36.571 104.755C36.571 104.731 36.5464 104.707 36.5464 104.707C36.4972 104.658 36.4726 104.584 36.448 104.535C36.3004 104.291 36.1528 104.046 35.9806 103.802C35.7838 103.509 35.6115 103.191 35.4147 102.873C35.1933 102.506 34.9965 102.164 34.7751 101.821C34.5536 101.455 34.3568 101.088 34.1354 100.721C33.914 100.33 33.6926 99.9388 33.4711 99.5476C33.3481 99.7188 33.2251 99.8899 33.1021 100.061C32.8561 100.452 32.8315 100.941 33.0529 101.332C36.4726 107.225 40.3598 112.873 44.616 118.154C51.8491 127.103 60.3615 135.171 69.8825 142.164C71.3833 143.264 73.1546 143.851 74.9998 143.851C76.8696 143.851 78.641 143.264 80.1417 142.164C89.6628 135.196 98.1752 127.103 105.408 118.154C112.445 109.474 118.349 99.8655 122.974 89.621C123.417 88.643 123.86 87.6406 124.278 86.6137C124.45 86.2714 124.401 85.8313 124.155 85.489Z" fill="black"/>
<path d="M125.41 87.1516C124.967 88.1785 124.524 89.1809 124.081 90.1834C119.407 100.526 113.453 110.208 106.343 118.985C99.0363 128.007 90.4747 136.149 80.8552 143.215C79.133 144.462 77.1156 145.147 74.9998 145.147C72.884 145.147 70.8421 144.487 69.1445 143.215C59.525 136.174 50.9634 128.032 43.6565 118.985C39.3511 113.655 35.4394 107.958 31.995 102.017C31.3062 100.844 31.7244 99.3521 32.9053 98.6675H32.9299C33.1021 98.9853 33.2743 99.3032 33.4712 99.621C33.6926 100.012 33.914 100.403 34.1354 100.795C34.3569 101.161 34.5537 101.528 34.7751 101.895C34.9965 102.237 35.1933 102.604 35.4148 102.946C35.6116 103.24 35.7838 103.557 35.9806 103.875C36.1282 104.12 36.2758 104.364 36.448 104.609C36.4726 104.658 36.5219 104.731 36.5465 104.78C36.5465 104.804 36.5711 104.829 36.5711 104.829L36.5957 104.853C36.7679 105.122 36.9401 105.391 37.0877 105.636C37.2107 105.856 37.3583 106.051 37.4813 106.271C37.7028 106.589 37.8996 106.907 38.121 107.225C38.3424 107.567 38.5638 107.91 38.7853 108.252C38.7853 108.276 38.8099 108.276 38.8099 108.301C39.0313 108.643 39.2773 108.985 39.4987 109.328C39.5233 109.352 39.5233 109.377 39.5479 109.401C39.7694 109.719 39.9662 110.012 40.1876 110.33C40.2122 110.355 40.2368 110.379 40.2614 110.428C40.4828 110.746 40.7042 111.064 40.9257 111.357C41.4177 112.066 41.9344 112.751 42.451 113.46C42.697 113.778 42.9431 114.12 43.1891 114.438C43.4597 114.78 43.7303 115.122 44.001 115.489C44.247 115.831 44.5176 116.149 44.7882 116.491C45.0588 116.809 45.3049 117.152 45.5755 117.469C52.7348 126.32 61.1734 134.34 70.6206 141.259C71.9 142.213 73.4253 142.702 75.0244 142.702C76.6236 142.702 78.1489 142.213 79.4283 141.259C88.8755 134.34 97.2895 126.345 104.473 117.469C111.436 108.863 117.291 99.3521 121.867 89.2054C122.064 88.7897 122.236 88.3496 122.433 87.934C122.482 87.8117 122.556 87.6895 122.605 87.5672C122.778 87.176 122.95 86.7848 123.097 86.3936C123.122 86.3447 123.147 86.2959 123.171 86.247C123.368 85.8069 123.54 85.3667 123.712 84.9267C123.835 84.6088 123.958 84.3154 124.081 83.9976H124.106C125.361 84.4621 125.951 85.8802 125.41 87.1516Z" fill="black"/>
<path d="M102.948 48.7897C102.973 49.0097 102.677 49.1564 102.53 48.9853C102.013 48.4229 100.906 47.176 100.635 46.5158C100.316 45.6845 98.9624 45.4645 98.3228 45.2933C98.1506 45.2444 98.0276 45.1467 97.9045 45.0244C97.3879 44.3643 95.5673 42.2616 92.3936 41.1124C92.3936 41.1124 90.1056 40.0855 89.7366 36.8581C89.7366 36.8581 89.835 36.0757 87.2518 34.4865C87.0549 34.3643 86.9811 34.1198 87.1041 33.8997C87.178 33.753 87.3748 33.7286 87.4732 33.8264C88.2605 34.511 90.8437 36.4914 92.1476 33.3374C92.369 32.8239 92.6151 32.3594 92.9103 31.8704C93.7714 30.4278 95.0261 27.6161 95.2229 25.6846C95.4689 23.4352 100.906 18.9119 102.973 17.2982C103.686 16.7604 104.572 16.467 105.457 16.5403C106.073 16.5892 106.712 16.8337 107.057 17.4694C107.573 18.4474 108.336 20.5745 108.803 21.9926C109.246 23.264 109.517 24.5843 109.64 25.9291C109.763 27.396 109.787 29.4254 109.468 31.7481C108.803 36.5647 106.835 38.1051 106.835 38.1051L106.417 38.4718C106.319 38.5452 106.171 38.5452 106.073 38.4718C105.876 38.2762 105.876 37.9584 106.073 37.7628C106.86 36.9804 108.631 34.8044 108.656 30.8924C108.68 28.7652 108.656 27.3227 108.631 26.3692C108.607 25.1956 108.434 24.0464 108.114 22.9217C107.721 21.4792 107.081 19.5232 106.319 18.5452C105.261 17.2005 103.194 18.643 102.456 19.2298C102.21 19.4254 101.939 19.621 101.693 19.8166L99.7005 21.2347C98.7902 21.8948 98.0276 22.7261 97.4863 23.7041C97.0681 24.4865 96.576 25.5379 96.1578 26.9315C96.0348 27.3227 95.8872 27.7383 95.7395 28.1295L94.042 32.3838C93.9682 32.6039 93.8698 32.7995 93.7714 33.0195L93.0333 34.5843C92.9349 34.7799 92.8119 34.9266 92.6397 35.0489C91.9754 35.5379 90.327 36.9804 92.0738 38.7652C93.0579 39.7677 93.6238 40.33 93.919 40.6723C94.1158 40.8924 94.4848 40.8679 94.657 40.6479L98.126 36.2958C98.126 36.2958 98.3966 35.8801 97.7815 35.8801C97.1665 35.8801 95.8626 35.6112 95.8626 35.6112L100.34 33.3129C100.562 33.1907 100.488 32.8973 100.266 32.8484L97.5355 32.555C97.2649 32.5061 97.0189 32.3105 96.9451 32.0415C96.8959 31.9193 96.9697 31.7726 97.1173 31.7237L100.783 30.6723C101.029 30.599 101.004 30.2567 100.758 30.2078L98.9378 29.8655C98.7164 29.8166 98.5196 29.7188 98.372 29.5476C98.1506 29.3031 98.0522 28.9364 98.7656 28.5941C99.6267 28.1784 101.103 27.4694 101.915 27.0782C102.308 26.8826 102.727 26.8092 103.169 26.7848H104.35C104.498 26.7848 104.596 26.8826 104.596 27.0293C104.596 27.2249 104.473 27.4205 104.301 27.5183L102.308 28.4718C102.136 28.5696 102.136 28.8141 102.308 28.9119L105.556 30.2567C105.753 30.3545 105.728 30.6234 105.531 30.6968L102.899 31.5525C102.677 31.6259 102.677 31.9437 102.899 32.0171L104.252 32.066C104.473 32.1149 104.523 32.3838 104.326 32.5061C103.563 32.9951 101.866 34.1198 101.496 35.3667C101.423 35.5868 101.25 35.7579 101.029 35.8312C99.9957 36.198 97.2649 37.4938 96.7974 40.7701C96.7728 40.9168 96.8959 41.0391 97.0435 41.0391C97.3633 41.0635 97.8799 41.2591 98.249 42.3838C98.2736 42.4816 98.3474 42.5305 98.4458 42.555C98.864 42.6039 100.045 42.8973 100.906 44.3154C101.004 44.4621 101.226 44.4865 101.324 44.3398C101.866 43.533 103.489 41.1858 104.818 39.8655C104.916 39.7677 105.064 39.8655 105.015 40.0122L103.096 44.5354C102.899 44.9755 102.8 45.4645 102.776 45.9535C102.776 46.6136 102.85 47.8117 102.948 48.7897Z" fill="#0B0B16"/>
<path d="M36.3496 69.0586C36.202 69.1564 35.9806 69.0586 35.9806 68.863C35.9068 67.9584 36.202 65.2933 40.1138 62.286C44.0993 59.2298 46.7072 56.7359 47.5683 55.9046C47.7159 55.7823 47.6421 55.5378 47.4699 55.4889C46.412 55.22 43.7057 54.3398 43.3367 52.4571C43.1399 51.5525 43.0907 50.9413 43.066 50.33C43.0168 49.3031 43.4105 48.3007 44.1732 47.6161C44.7144 47.1026 45.4771 46.5647 46.3874 46.2469C47.6421 45.8068 49.0198 46.0024 50.1515 46.6381C50.6928 46.9315 51.3324 47.3471 51.9475 47.8606C52.2919 48.154 52.5133 48.5696 52.5379 49.0342C52.5871 49.9388 52.3411 51.6747 50.6682 54.3887C48.577 57.7628 46.0183 59.8899 45.0588 60.6479C44.8866 60.7701 44.9604 61.039 45.1572 61.0879C46.3136 61.3324 49.2412 61.9192 50.8404 63.1662C51.0126 63.3129 51.2094 63.4351 51.4062 63.5574C52.2181 64.1197 54.4569 65.6356 53.3252 67.6894C53.3252 67.6894 50.1269 72.6772 46.7072 74.3398C46.1659 74.6087 45.6985 74.9999 45.4033 75.5134C45.0588 76.1246 44.9112 76.907 45.7723 77.6161C45.9445 77.7383 46.1167 77.8606 46.3136 77.9339C47.5191 78.5207 53.1284 81.0879 57.7044 81.4058C57.8766 81.4058 58.0488 81.4302 58.2211 81.4547C58.8361 81.528 60.7059 81.6258 62.2804 80.7701C64.1994 79.7188 66.1676 79.841 66.6104 79.9144C67.0533 79.9877 69.6119 80.2811 67.816 81.088C66.5612 81.6747 64.9867 82.1637 64.1748 82.4327C63.7074 82.5794 63.1907 82.6038 62.7233 82.4816C62.5019 82.4327 62.2804 82.3593 62.0344 82.2615C61.8622 82.1882 61.6654 82.2126 61.5178 82.3349C61.0995 82.7261 60.1154 83.484 58.5901 83.7774C56.8925 84.0953 51.6769 82.8239 49.7579 82.3593C49.315 82.2371 48.8722 82.1882 48.4047 82.2126C47.1992 82.2371 44.5176 82.1882 42.574 81.3569C42.574 81.3569 41.0733 80.8923 42.8446 83.8508C44.247 86.1735 46.1167 87.1026 46.8548 87.3716C47.027 87.4449 47.1992 87.4938 47.3468 87.5672C47.9865 87.8361 50.4221 88.5452 55.81 87.4449C56.3021 87.3471 56.7941 87.2738 57.2862 87.2249C58.6393 87.1026 61.2471 86.9559 62.5511 87.3716C62.5511 87.3716 63.1169 87.8361 61.444 88.0317C59.771 88.2273 55.7608 89.132 55.7608 89.132C55.7608 89.132 51.0864 90.1344 47.2484 89.3765C44.5422 88.8386 42.328 85.8557 41.2947 84.1442C40.901 83.5085 40.6304 82.775 40.5074 82.0415C40.286 80.7212 39.6709 78.374 38.121 77.6405C37.8012 77.4938 37.4813 77.3227 37.2107 77.0782C36.7433 76.687 36.1282 76.0024 35.8084 75.1955C35.6854 74.8532 35.4885 74.5109 35.2425 74.242C35.1687 74.1686 35.0703 74.0708 34.9719 73.9975C34.7259 73.8019 34.6029 73.4351 34.7259 73.1417C34.9719 72.5305 35.71 71.9192 36.7187 72.6283C37.7273 73.3373 38.2194 74.3887 38.4162 74.9999C38.6376 75.6601 38.9329 76.2713 39.3757 76.8092C40.0154 77.5672 40.9503 78.2518 42.0328 77.6161C43.5089 76.7603 43.3121 75.7823 43.0907 75.3178C42.9922 75.0977 42.9184 74.8777 42.8446 74.6576C42.6478 73.973 41.8851 72.4327 38.8345 71.2591C38.8345 71.2591 38.3178 71.0635 38.4408 69.0586C38.4654 68.7652 38.3916 68.4963 38.1948 68.2762C37.9488 68.0073 37.5551 67.8361 36.9155 68.4718C36.8663 68.5941 36.3496 69.0586 36.3496 69.0586Z" fill="#0B0B16"/>
<path d="M42.8446 63.8998L48.6016 64.4621C48.7246 64.4866 48.823 64.3888 48.823 64.2665C48.823 64.1687 48.7492 64.0709 48.6508 64.0709L42.5986 63.0685C42.451 63.044 42.328 63.1418 42.3034 63.2641C42.2788 63.5575 42.5248 63.8509 42.8446 63.8998Z" fill="white"/>
<path d="M47.4206 47.5672C47.5191 47.5183 47.5683 47.445 47.5437 47.3472C47.5191 47.2249 47.396 47.1516 47.273 47.2005C46.5104 47.4939 44.0255 48.6675 44.6406 52.2127C44.6652 52.3105 44.7636 52.3839 44.862 52.3839C44.985 52.3839 45.0588 52.2861 45.0588 52.1638C45.0834 51.4303 45.2556 48.4963 47.4206 47.5672Z" fill="white"/>
<path d="M46.3628 51.8215C46.2644 51.797 46.1167 51.9682 46.0921 52.066C46.0429 52.2127 46.0429 52.7017 46.3382 53.0195C46.8548 53.5574 47.0762 53.5574 47.3223 53.5574C47.5929 53.5574 47.9127 53.5574 47.5437 52.775C47.2485 52.1882 46.658 51.8704 46.3628 51.8215Z" fill="white"/>
<path d="M66.7827 53.4107C66.4382 53.753 66.1922 54.1931 66.0938 54.6577C65.9708 55.1956 65.9708 55.9291 66.4875 56.6137C67.1763 57.5183 69.0707 58.3985 70.3254 58.8875C71.7031 59.4254 73.2039 59.5965 74.6554 59.3276C75.7625 59.1076 77.0172 58.643 78.2474 57.6406C81.5441 55.0244 81.5441 54.4621 81.5441 54.4621C81.5441 54.4621 81.8639 53.1173 78.9362 50.7701C77.3371 49.4743 75.7133 49.0342 74.557 48.8875C73.6713 48.7652 72.761 48.9608 71.9738 49.4009C70.7437 50.1344 68.6279 51.5036 66.7827 53.4107Z" fill="#0B0B16"/>
<path d="M71.6539 56.5648C71.5555 56.2225 71.5309 55.8557 71.5063 55.489C71.4571 54.8288 71.4325 54.1687 71.6293 53.533C71.8261 52.8973 72.269 52.3105 72.9086 52.1638C73.4007 52.0415 73.9173 52.1638 74.3848 51.9682C74.68 51.8459 74.9014 51.577 74.9752 51.2836C74.9998 51.2102 74.9998 51.1369 74.9998 51.0635C74.9752 50.9413 74.8522 50.8435 74.7292 50.7946C73.9911 50.4034 73.0316 50.4278 72.3182 50.8679C72.0229 51.0635 71.7523 51.308 71.4817 51.5525C71.2849 51.7481 71.0881 51.9193 70.8912 52.1149C70.4238 52.555 69.9564 53.044 69.7103 53.6308C69.5135 54.1198 69.4643 54.6821 69.4397 55.1956C69.4151 55.6601 69.4151 56.1491 69.6119 56.5648C69.9317 57.2738 70.719 57.665 71.4571 57.9095C71.6539 57.9829 71.8753 58.0318 72.0722 57.9584C72.3674 57.8362 72.3182 57.5917 72.1706 57.4205C71.9491 57.1516 71.7523 56.9071 71.6539 56.5648Z" fill="white"/>
<path d="M73.5975 57.3471C73.3269 57.2248 73.0071 57.0781 72.884 56.8092C72.8348 56.6625 72.8348 56.5158 72.8348 56.3691C72.8348 56.2713 72.8348 56.1491 72.9086 56.0757C72.9824 56.0024 73.0563 55.9779 73.1547 55.9779C73.4745 55.9534 73.7943 56.0268 74.1142 56.1735C74.2372 56.2224 74.3602 56.2713 74.434 56.3691C74.5078 56.4424 74.557 56.5158 74.6308 56.6136C74.803 56.8825 74.9752 57.396 74.5816 57.5916C74.311 57.6894 73.8435 57.4449 73.5975 57.3471Z" fill="white"/>
<path d="M141.351 23.2396C141.105 17.3227 137.267 12.1882 131.609 10.1589C112.837 3.43519 93.7948 0.012207 74.9987 0.012207C56.2025 0.012207 37.1604 3.43519 18.3888 10.1589C12.7303 12.1882 8.91692 17.3227 8.64629 23.2396C8.12964 35.3423 8.94152 47.3227 11.0573 58.8142C13.1977 70.4523 16.6912 81.6748 21.4395 92.1638C26.2861 102.873 32.4613 112.922 39.8174 122.017C47.3949 131.381 56.2763 139.817 66.2403 147.103C68.7989 148.985 71.8496 149.988 75.0233 149.988C78.197 149.988 81.2477 148.985 83.8063 147.103C93.7702 139.817 102.652 131.357 110.229 122.017C117.585 112.922 123.785 102.873 128.607 92.1638C133.355 81.6748 136.849 70.4523 138.989 58.8142C141.08 47.3227 141.868 35.3423 141.351 23.2396ZM131.682 57.4939C130.009 66.6381 127.451 75.489 124.056 83.9242C123.933 84.242 123.81 84.5354 123.687 84.8533C123.514 85.2934 123.318 85.7335 123.145 86.1736C123.121 86.2225 123.096 86.2714 123.072 86.3203C122.899 86.7115 122.752 87.1027 122.58 87.4939C122.53 87.6161 122.457 87.7384 122.407 87.8606C122.21 88.2763 122.038 88.7164 121.841 89.132C117.265 99.2787 111.41 108.79 104.448 117.396C97.2884 126.247 88.8498 134.266 79.4025 141.186C78.1232 142.139 76.5978 142.628 74.9987 142.628C73.3995 142.628 71.8742 142.139 70.5949 141.186C61.1476 134.266 52.7336 126.271 45.5497 117.396C45.2791 117.078 45.0085 116.736 44.7625 116.418C44.4918 116.1 44.2458 115.758 43.9752 115.416C43.7046 115.073 43.4339 114.731 43.1633 114.364C42.9173 114.046 42.6713 113.729 42.4252 113.386C41.9086 112.702 41.392 111.993 40.8999 111.284C40.6785 110.966 40.4571 110.648 40.2356 110.354C40.211 110.33 40.1864 110.306 40.1618 110.257C39.9404 109.939 39.719 109.645 39.5222 109.328C39.4976 109.303 39.4976 109.279 39.473 109.254C39.2269 108.912 39.0055 108.57 38.7841 108.227C38.7841 108.203 38.7595 108.203 38.7595 108.178C38.5381 107.836 38.3167 107.494 38.0952 107.152C37.8738 106.834 37.677 106.516 37.4556 106.198C37.3326 105.978 37.185 105.782 37.0619 105.562C36.8897 105.293 36.7175 105.049 36.5699 104.78C36.5699 104.78 36.5699 104.755 36.5453 104.755C36.5453 104.731 36.5207 104.707 36.5207 104.707C36.4715 104.658 36.4469 104.584 36.4223 104.535C36.2747 104.291 36.1271 104.046 35.9548 103.802C35.758 103.509 35.5858 103.191 35.389 102.873C35.1676 102.506 34.9707 102.164 34.7493 101.821C34.5279 101.455 34.3311 101.088 34.1097 100.721C33.8882 100.33 33.6668 99.9388 33.4454 99.5476C33.2732 99.2298 33.0764 98.912 32.9042 98.5941C31.182 95.5134 29.6075 92.3349 28.1559 89.1075C23.6537 79.1564 20.3324 68.4963 18.315 57.445C16.2976 46.467 15.5349 35.0489 16.027 23.4841C16.15 20.5501 18.069 18.0073 20.8982 17.0049C29.8781 13.7775 38.9317 11.3569 47.9608 9.74326C57.0144 8.12957 66.0435 7.29827 74.9987 7.29827C92.9338 7.29827 111.139 10.5746 129.124 17.0049C131.953 18.0073 133.847 20.5746 133.995 23.4841C134.487 35.0978 133.7 46.5403 131.682 57.4939Z" fill="url(#paint0_linear)"/>
<defs>
<linearGradient id="paint0_linear" x1="8.49542" y1="-184.243" x2="241.431" y2="-129.179" gradientUnits="userSpaceOnUse">
<stop stop-color="#E100BD"/>
<stop offset="0.385417" stop-color="#EF0044"/>
<stop offset="1" stop-color="#160CE8"/>
</linearGradient>
</defs>
</svg>
